<mxfile host="app.diagrams.net" modified="2024-03-21T14:20:05.386Z" agent="Mozilla/5.0 (Macintosh; Intel Mac OS X 10_15_7) AppleWebKit/537.36 (KHTML, like Gecko) Chrome/114.0.0.0 Safari/537.36" version="24.0.7" etag="EfQgcYRk1OThmBdKlFJC" type="github">
  <diagram name="Page-1" id="-TQvoxb3krFEMFaAyEnY">
    <mxGraphModel>
      <root>
        <mxCell id="0" />
        <mxCell id="1" parent="0" />
      </root>
    </mxGraphModel>
  </diagram>
</mxfile>
